# xmcd
#
# Track frame offsets: 
#        150
#        16167
#        32678
#        54706
#        71119
#        89763
#        105398
#        118607
#        133403
#        150680
#        168333
#        184454
#        200669
#        217244
#        233420
#        252591
#
# Disc length: 3633 seconds
#
# Revision: 6
# Processed by: cddbd v1.4PL0 Copyright (c) Steve Scherf et al.
# Submitted via: ExactAudioCopy v0.90b4
#
DISCID=f00e2f10
DTITLE=Shania Twain - Come On Over (Australian Tour) - Disc 1
DYEAR=1999
DGENRE=Country
TTITLE0=You're Still The One
TTITLE1=When
TTITLE2=From This Moment On
TTITLE3=Black Eyes, Blue Tears
TTITLE4=I Won't Leave You Lonely
TTITLE5=I'm Holdin' On To Love (To Save My Life)
TTITLE6=Come On Over
TTITLE7=You've Got A Way (Notting Hill Remix)
TTITLE8=Whatever You Do! Don't!
TTITLE9=Man! I Feel Like A Woman
TTITLE10=Love Gets Me Every Time
TTITLE11=Don't Be Stupid (You Know I Love You)
TTITLE12=That Don't Impress Me Much (UK Dance Mix)
TTITLE13=Honey, I'm Home
TTITLE14=If You Wanna Touch Her, Ask!
TTITLE15=Rock This Country!
EXTD=YEAR: 1999
EXTT0=
EXTT1=
EXTT2=
EXTT3=
EXTT4=
EXTT5=
EXTT6=
EXTT7=
EXTT8=
EXTT9=
EXTT10=
EXTT11=
EXTT12=
EXTT13=
EXTT14=
EXTT15=
PLAYORDER=
